<?xml version="1.0" encoding="utf-8" standalone="no"?>
<!DOCTYPE svg PUBLIC "-//W3C//DTD SVG 1.1//EN"
  "http://www.w3.org/Graphics/SVG/1.1/DTD/svg11.dtd">
<svg xmlns:xlink="http://www.w3.org/1999/xlink" width="460.8pt" height="345.6pt" viewBox="0 0 460.8 345.6" xmlns="http://www.w3.org/2000/svg" version="1.1">
 <metadata>
  <rdf:RDF xmlns:dc="http://purl.org/dc/elements/1.1/" xmlns:cc="http://creativecommons.org/ns#" xmlns:rdf="http://www.w3.org/1999/02/22-rdf-syntax-ns#">
   <cc:Work>
    <dc:type rdf:resource="http://purl.org/dc/dcmitype/StillImage"/>
    <dc:date>2022-12-16T14:42:20.043659</dc:date>
    <dc:format>image/svg+xml</dc:format>
    <dc:creator>
     <cc:Agent>
      <dc:title>Matplotlib v3.5.1, https://matplotlib.org/</dc:title>
     </cc:Agent>
    </dc:creator>
   </cc:Work>
  </rdf:RDF>
 </metadata>
 <defs>
  <style type="text/css">*{stroke-linejoin: round; stroke-linecap: butt}</style>
 </defs>
 <g id="figure_1">
  <g id="patch_1">
   <path d="M 0 345.6 
L 460.8 345.6 
L 460.8 0 
L 0 0 
z
" style="fill: #ffffff"/>
  </g>
  <g id="axes_1">
   <g id="patch_2">
    <path d="M 57.6 307.584 
L 414.72 307.584 
L 414.72 41.472 
L 57.6 41.472 
z
" style="fill: #ffffff"/>
   </g>
   <g id="matplotlib.axis_1">
    <g id="xtick_1">
     <g id="line2d_1">
      <defs>
       <path id="mc19b6403f8" d="M 0 0 
L 0 6 
" style="stroke: #262626; stroke-width: 1.25"/>
      </defs>
      <g>
       <use xlink:href="#mc19b6403f8" x="93.823771" y="307.584" style="fill: #262626; stroke: #262626; stroke-width: 1.25"/>
      </g>
     </g>
     <g id="text_1">
      <!-- 1930-09 -->
      <g style="fill: #262626" transform="translate(65.098087 327.531852)scale(0.1375 -0.1375)">
       <defs>
        <path id="DejaVuSans-31" d="M 794 531 
L 1825 531 
L 1825 4091 
L 703 3866 
L 703 4441 
L 1819 4666 
L 2450 4666 
L 2450 531 
L 3481 531 
L 3481 0 
L 794 0 
L 794 531 
z
" transform="scale(0.015625)"/>
        <path id="DejaVuSans-39" d="M 703 97 
L 703 672 
Q 941 559 1184 500 
Q 1428 441 1663 441 
Q 2288 441 2617 861 
Q 2947 1281 2994 2138 
Q 2813 1869 2534 1725 
Q 2256 1581 1919 1581 
Q 1219 1581 811 2004 
Q 403 2428 403 3163 
Q 403 3881 828 4315 
Q 1253 4750 1959 4750 
Q 2769 4750 3195 4129 
Q 3622 3509 3622 2328 
Q 3622 1225 3098 567 
Q 2575 -91 1691 -91 
Q 1453 -91 1209 -44 
Q 966 3 703 97 
z
M 1959 2075 
Q 2384 2075 2632 2365 
Q 2881 2656 2881 3163 
Q 2881 3666 2632 3958 
Q 2384 4250 1959 4250 
Q 1534 4250 1286 3958 
Q 1038 3666 1038 3163 
Q 1038 2656 1286 2365 
Q 1534 2075 1959 2075 
z
" transform="scale(0.015625)"/>
        <path id="DejaVuSans-33" d="M 2597 2516 
Q 3050 2419 3304 2112 
Q 3559 1806 3559 1356 
Q 3559 666 3084 287 
Q 2609 -91 1734 -91 
Q 1441 -91 1130 -33 
Q 819 25 488 141 
L 488 750 
Q 750 597 1062 519 
Q 1375 441 1716 441 
Q 2309 441 2620 675 
Q 2931 909 2931 1356 
Q 2931 1769 2642 2001 
Q 2353 2234 1838 2234 
L 1294 2234 
L 1294 2753 
L 1863 2753 
Q 2328 2753 2575 2939 
Q 2822 3125 2822 3475 
Q 2822 3834 2567 4026 
Q 2313 4219 1838 4219 
Q 1578 4219 1281 4162 
Q 984 4106 628 3988 
L 628 4550 
Q 988 4650 1302 4700 
Q 1616 4750 1894 4750 
Q 2613 4750 3031 4423 
Q 3450 4097 3450 3541 
Q 3450 3153 3228 2886 
Q 3006 2619 2597 2516 
z
" transform="scale(0.015625)"/>
        <path id="DejaVuSans-30" d="M 2034 4250 
Q 1547 4250 1301 3770 
Q 1056 3291 1056 2328 
Q 1056 1369 1301 889 
Q 1547 409 2034 409 
Q 2525 409 2770 889 
Q 3016 1369 3016 2328 
Q 3016 3291 2770 3770 
Q 2525 4250 2034 4250 
z
M 2034 4750 
Q 2819 4750 3233 4129 
Q 3647 3509 3647 2328 
Q 3647 1150 3233 529 
Q 2819 -91 2034 -91 
Q 1250 -91 836 529 
Q 422 1150 422 2328 
Q 422 3509 836 4129 
Q 1250 4750 2034 4750 
z
" transform="scale(0.015625)"/>
        <path id="DejaVuSans-2d" d="M 313 2009 
L 1997 2009 
L 1997 1497 
L 313 1497 
L 313 2009 
z
" transform="scale(0.015625)"/>
       </defs>
       <use xlink:href="#DejaVuSans-31"/>
       <use xlink:href="#DejaVuSans-39" x="63.623047"/>
       <use xlink:href="#DejaVuSans-33" x="127.246094"/>
       <use xlink:href="#DejaVuSans-30" x="190.869141"/>
       <use xlink:href="#DejaVuSans-2d" x="254.492188"/>
       <use xlink:href="#DejaVuSans-30" x="290.576172"/>
       <use xlink:href="#DejaVuSans-39" x="354.199219"/>
      </g>
     </g>
    </g>
    <g id="xtick_2">
     <g id="line2d_2">
      <g>
       <use xlink:href="#mc19b6403f8" x="142.601917" y="307.584" style="fill: #262626; stroke: #262626; stroke-width: 1.25"/>
      </g>
     </g>
     <g id="text_2">
      <!-- 1930-11 -->
      <g style="fill: #262626" transform="translate(113.876233 327.531852)scale(0.1375 -0.1375)">
       <use xlink:href="#DejaVuSans-31"/>
       <use xlink:href="#DejaVuSans-39" x="63.623047"/>
       <use xlink:href="#DejaVuSans-33" x="127.246094"/>
       <use xlink:href="#DejaVuSans-30" x="190.869141"/>
       <use xlink:href="#DejaVuSans-2d" x="254.492188"/>
       <use xlink:href="#DejaVuSans-31" x="290.576172"/>
       <use xlink:href="#DejaVuSans-31" x="354.199219"/>
      </g>
     </g>
    </g>
    <g id="xtick_3">
     <g id="line2d_3">
      <g>
       <use xlink:href="#mc19b6403f8" x="191.380063" y="307.584" style="fill: #262626; stroke: #262626; stroke-width: 1.25"/>
      </g>
     </g>
     <g id="text_3">
      <!-- 1931-01 -->
      <g style="fill: #262626" transform="translate(162.654379 327.531852)scale(0.1375 -0.1375)">
       <use xlink:href="#DejaVuSans-31"/>
       <use xlink:href="#DejaVuSans-39" x="63.623047"/>
       <use xlink:href="#DejaVuSans-33" x="127.246094"/>
       <use xlink:href="#DejaVuSans-31" x="190.869141"/>
       <use xlink:href="#DejaVuSans-2d" x="254.492188"/>
       <use xlink:href="#DejaVuSans-30" x="290.576172"/>
       <use xlink:href="#DejaVuSans-31" x="354.199219"/>
      </g>
     </g>
    </g>
    <g id="xtick_4">
     <g id="line2d_4">
      <g>
       <use xlink:href="#mc19b6403f8" x="238.558925" y="307.584" style="fill: #262626; stroke: #262626; stroke-width: 1.25"/>
      </g>
     </g>
     <g id="text_4">
      <!-- 1931-03 -->
      <g style="fill: #262626" transform="translate(209.833242 327.531852)scale(0.1375 -0.1375)">
       <use xlink:href="#DejaVuSans-31"/>
       <use xlink:href="#DejaVuSans-39" x="63.623047"/>
       <use xlink:href="#DejaVuSans-33" x="127.246094"/>
       <use xlink:href="#DejaVuSans-31" x="190.869141"/>
       <use xlink:href="#DejaVuSans-2d" x="254.492188"/>
       <use xlink:href="#DejaVuSans-30" x="290.576172"/>
       <use xlink:href="#DejaVuSans-33" x="354.199219"/>
      </g>
     </g>
    </g>
    <g id="xtick_5">
     <g id="line2d_5">
      <g>
       <use xlink:href="#mc19b6403f8" x="287.337071" y="307.584" style="fill: #262626; stroke: #262626; stroke-width: 1.25"/>
      </g>
     </g>
     <g id="text_5">
      <!-- 1931-05 -->
      <g style="fill: #262626" transform="translate(258.611388 327.531852)scale(0.1375 -0.1375)">
       <defs>
        <path id="DejaVuSans-35" d="M 691 4666 
L 3169 4666 
L 3169 4134 
L 1269 4134 
L 1269 2991 
Q 1406 3038 1543 3061 
Q 1681 3084 1819 3084 
Q 2600 3084 3056 2656 
Q 3513 2228 3513 1497 
Q 3513 744 3044 326 
Q 2575 -91 1722 -91 
Q 1428 -91 1123 -41 
Q 819 9 494 109 
L 494 744 
Q 775 591 1075 516 
Q 1375 441 1709 441 
Q 2250 441 2565 725 
Q 2881 1009 2881 1497 
Q 2881 1984 2565 2268 
Q 2250 2553 1709 2553 
Q 1456 2553 1204 2497 
Q 953 2441 691 2322 
L 691 4666 
z
" transform="scale(0.015625)"/>
       </defs>
       <use xlink:href="#DejaVuSans-31"/>
       <use xlink:href="#DejaVuSans-39" x="63.623047"/>
       <use xlink:href="#DejaVuSans-33" x="127.246094"/>
       <use xlink:href="#DejaVuSans-31" x="190.869141"/>
       <use xlink:href="#DejaVuSans-2d" x="254.492188"/>
       <use xlink:href="#DejaVuSans-30" x="290.576172"/>
       <use xlink:href="#DejaVuSans-35" x="354.199219"/>
      </g>
     </g>
    </g>
    <g id="xtick_6">
     <g id="line2d_6">
      <g>
       <use xlink:href="#mc19b6403f8" x="336.115217" y="307.584" style="fill: #262626; stroke: #262626; stroke-width: 1.25"/>
      </g>
     </g>
     <g id="text_6">
      <!-- 1931-07 -->
      <g style="fill: #262626" transform="translate(307.389534 327.531852)scale(0.1375 -0.1375)">
       <defs>
        <path id="DejaVuSans-37" d="M 525 4666 
L 3525 4666 
L 3525 4397 
L 1831 0 
L 1172 0 
L 2766 4134 
L 525 4134 
L 525 4666 
z
" transform="scale(0.015625)"/>
       </defs>
       <use xlink:href="#DejaVuSans-31"/>
       <use xlink:href="#DejaVuSans-39" x="63.623047"/>
       <use xlink:href="#DejaVuSans-33" x="127.246094"/>
       <use xlink:href="#DejaVuSans-31" x="190.869141"/>
       <use xlink:href="#DejaVuSans-2d" x="254.492188"/>
       <use xlink:href="#DejaVuSans-30" x="290.576172"/>
       <use xlink:href="#DejaVuSans-37" x="354.199219"/>
      </g>
     </g>
    </g>
    <g id="xtick_7">
     <g id="line2d_7">
      <g>
       <use xlink:href="#mc19b6403f8" x="385.693005" y="307.584" style="fill: #262626; stroke: #262626; stroke-width: 1.25"/>
      </g>
     </g>
     <g id="text_7">
      <!-- 1931-09 -->
      <g style="fill: #262626" transform="translate(356.967321 327.531852)scale(0.1375 -0.1375)">
       <use xlink:href="#DejaVuSans-31"/>
       <use xlink:href="#DejaVuSans-39" x="63.623047"/>
       <use xlink:href="#DejaVuSans-33" x="127.246094"/>
       <use xlink:href="#DejaVuSans-31" x="190.869141"/>
       <use xlink:href="#DejaVuSans-2d" x="254.492188"/>
       <use xlink:href="#DejaVuSans-30" x="290.576172"/>
       <use xlink:href="#DejaVuSans-39" x="354.199219"/>
      </g>
     </g>
    </g>
   </g>
   <g id="matplotlib.axis_2">
    <g id="ytick_1">
     <g id="line2d_8">
      <defs>
       <path id="m46fd4e1882" d="M 0 0 
L -6 0 
" style="stroke: #262626; stroke-width: 1.25"/>
      </defs>
      <g>
       <use xlink:href="#m46fd4e1882" x="57.6" y="252.530243" style="fill: #262626; stroke: #262626; stroke-width: 1.25"/>
      </g>
     </g>
     <g id="text_8">
      <!-- −10 -->
      <g style="fill: #262626" transform="translate(19.081055 257.754169)scale(0.1375 -0.1375)">
       <defs>
        <path id="DejaVuSans-2212" d="M 678 2272 
L 4684 2272 
L 4684 1741 
L 678 1741 
L 678 2272 
z
" transform="scale(0.015625)"/>
       </defs>
       <use xlink:href="#DejaVuSans-2212"/>
       <use xlink:href="#DejaVuSans-31" x="83.789062"/>
       <use xlink:href="#DejaVuSans-30" x="147.412109"/>
      </g>
     </g>
    </g>
    <g id="ytick_2">
     <g id="line2d_9">
      <g>
       <use xlink:href="#m46fd4e1882" x="57.6" y="196.006879" style="fill: #262626; stroke: #262626; stroke-width: 1.25"/>
      </g>
     </g>
     <g id="text_9">
      <!-- −5 -->
      <g style="fill: #262626" transform="translate(27.829492 201.230804)scale(0.1375 -0.1375)">
       <use xlink:href="#DejaVuSans-2212"/>
       <use xlink:href="#DejaVuSans-35" x="83.789062"/>
      </g>
     </g>
    </g>
    <g id="ytick_3">
     <g id="line2d_10">
      <g>
       <use xlink:href="#m46fd4e1882" x="57.6" y="139.483514" style="fill: #262626; stroke: #262626; stroke-width: 1.25"/>
      </g>
     </g>
     <g id="text_10">
      <!-- 0 -->
      <g style="fill: #262626" transform="translate(39.351562 144.70744)scale(0.1375 -0.1375)">
       <use xlink:href="#DejaVuSans-30"/>
      </g>
     </g>
    </g>
    <g id="ytick_4">
     <g id="line2d_11">
      <g>
       <use xlink:href="#m46fd4e1882" x="57.6" y="82.96015" style="fill: #262626; stroke: #262626; stroke-width: 1.25"/>
      </g>
     </g>
     <g id="text_11">
      <!-- 5 -->
      <g style="fill: #262626" transform="translate(39.351562 88.184075)scale(0.1375 -0.1375)">
       <use xlink:href="#DejaVuSans-35"/>
      </g>
     </g>
    </g>
    <g id="text_12">
     <!-- WS-FS [K] -->
     <g style="fill: #262626" transform="translate(11.961523 211.508859)rotate(-90)scale(0.15 -0.15)">
      <defs>
       <path id="DejaVuSans-57" d="M 213 4666 
L 850 4666 
L 1831 722 
L 2809 4666 
L 3519 4666 
L 4500 722 
L 5478 4666 
L 6119 4666 
L 4947 0 
L 4153 0 
L 3169 4050 
L 2175 0 
L 1381 0 
L 213 4666 
z
" transform="scale(0.015625)"/>
       <path id="DejaVuSans-53" d="M 3425 4513 
L 3425 3897 
Q 3066 4069 2747 4153 
Q 2428 4238 2131 4238 
Q 1616 4238 1336 4038 
Q 1056 3838 1056 3469 
Q 1056 3159 1242 3001 
Q 1428 2844 1947 2747 
L 2328 2669 
Q 3034 2534 3370 2195 
Q 3706 1856 3706 1288 
Q 3706 609 3251 259 
Q 2797 -91 1919 -91 
Q 1588 -91 1214 -16 
Q 841 59 441 206 
L 441 856 
Q 825 641 1194 531 
Q 1563 422 1919 422 
Q 2459 422 2753 634 
Q 3047 847 3047 1241 
Q 3047 1584 2836 1778 
Q 2625 1972 2144 2069 
L 1759 2144 
Q 1053 2284 737 2584 
Q 422 2884 422 3419 
Q 422 4038 858 4394 
Q 1294 4750 2059 4750 
Q 2388 4750 2728 4690 
Q 3069 4631 3425 4513 
z
" transform="scale(0.015625)"/>
       <path id="DejaVuSans-46" d="M 628 4666 
L 3309 4666 
L 3309 4134 
L 1259 4134 
L 1259 2759 
L 3109 2759 
L 3109 2228 
L 1259 2228 
L 1259 0 
L 628 0 
L 628 4666 
z
" transform="scale(0.015625)"/>
       <path id="DejaVuSans-20" transform="scale(0.015625)"/>
       <path id="DejaVuSans-5b" d="M 550 4863 
L 1875 4863 
L 1875 4416 
L 1125 4416 
L 1125 -397 
L 1875 -397 
L 1875 -844 
L 550 -844 
L 550 4863 
z
" transform="scale(0.015625)"/>
       <path id="DejaVuSans-4b" d="M 628 4666 
L 1259 4666 
L 1259 2694 
L 3353 4666 
L 4166 4666 
L 1850 2491 
L 4331 0 
L 3500 0 
L 1259 2247 
L 1259 0 
L 628 0 
L 628 4666 
z
" transform="scale(0.015625)"/>
       <path id="DejaVuSans-5d" d="M 1947 4863 
L 1947 -844 
L 622 -844 
L 622 -397 
L 1369 -397 
L 1369 4416 
L 622 4416 
L 622 4863 
L 1947 4863 
z
" transform="scale(0.015625)"/>
      </defs>
      <use xlink:href="#DejaVuSans-57"/>
      <use xlink:href="#DejaVuSans-53" x="98.876953"/>
      <use xlink:href="#DejaVuSans-2d" x="162.353516"/>
      <use xlink:href="#DejaVuSans-46" x="198.4375"/>
      <use xlink:href="#DejaVuSans-53" x="254.207031"/>
      <use xlink:href="#DejaVuSans-20" x="317.683594"/>
      <use xlink:href="#DejaVuSans-5b" x="349.470703"/>
      <use xlink:href="#DejaVuSans-4b" x="388.484375"/>
      <use xlink:href="#DejaVuSans-5d" x="454.060547"/>
     </g>
    </g>
   </g>
   <g id="line2d_12">
    <path d="M 73.832727 214.094355 
L 74.632369 236.703701 
L 75.432011 236.703701 
L 76.231652 246.877907 
L 77.031294 270.61772 
M 79.430219 200.528748 
L 81.029503 248.008374 
L 81.829145 263.834916 
L 83.428428 224.268561 
M 85.027712 215.224822 
L 85.827353 223.138093 
L 86.626995 223.138093 
M 98.621621 260.443514 
L 99.421263 267.226318 
L 100.220905 241.22557 
L 101.020546 267.226318 
L 101.820188 271.748187 
L 102.61983 261.573981 
L 103.419472 240.095103 
L 104.219113 266.09585 
L 105.018755 231.051364 
L 105.818397 207.311551 
L 106.618039 253.66071 
L 107.41768 215.224822 
L 108.217322 242.356037 
L 109.016964 259.313047 
L 109.816605 245.747439 
L 110.616247 235.573234 
L 111.415889 215.224822 
L 112.215531 237.834168 
L 113.015172 224.268561 
L 113.814814 217.485757 
L 114.614456 270.61772 
M 117.013381 241.22557 
L 117.813023 217.485757 
L 118.612665 150.788187 
L 119.412306 164.353794 
L 120.211948 261.573981 
L 121.01159 138.353047 
L 121.811232 166.614729 
L 122.610873 223.138093 
L 123.410515 229.920897 
L 124.210157 245.747439 
L 125.009798 104.439028 
L 125.80944 259.313047 
L 126.609082 220.877159 
L 127.408724 110.091364 
L 128.208365 228.79043 
L 129.008007 267.226318 
L 129.807649 53.568 
L 130.607291 261.573981 
L 131.406932 263.834916 
L 132.206574 245.747439 
L 133.006216 171.136598 
L 133.805858 203.92015 
L 134.605499 242.356037 
L 135.405141 261.573981 
L 136.204783 260.443514 
L 137.004425 250.269308 
L 137.804066 255.921645 
L 138.603708 272.878654 
L 139.40335 268.356785 
L 140.202991 261.573981 
L 141.002633 281.922393 
L 142.601917 245.747439 
L 143.401558 257.052112 
L 144.2012 278.530991 
L 145.000842 261.573981 
L 146.600125 261.573981 
L 147.399767 232.181832 
L 148.199409 260.443514 
L 148.999051 242.356037 
L 149.798692 253.66071 
L 150.598334 254.791178 
M 152.997259 286.444262 
L 153.796901 262.704449 
L 154.596543 271.748187 
L 155.396185 224.268561 
L 156.195826 259.313047 
M 157.79511 241.22557 
L 158.594751 242.356037 
L 159.394393 257.052112 
L 160.194035 268.356785 
L 160.993677 262.704449 
M 163.392602 242.356037 
L 164.192244 252.530243 
L 164.991885 223.138093 
L 165.791527 237.834168 
M 168.990094 249.138841 
L 169.789736 250.269308 
L 170.589378 242.356037 
M 177.786153 219.746692 
L 178.585795 201.659215 
L 179.385437 180.180336 
L 180.185078 222.007626 
L 181.784362 262.704449 
L 182.584004 255.921645 
L 183.383645 242.356037 
L 184.183287 257.052112 
L 184.982929 268.356785 
L 185.782571 271.748187 
L 186.582212 271.748187 
M 188.181496 202.789682 
L 189.780779 281.922393 
L 190.580421 263.834916 
L 191.380063 274.009121 
L 192.179704 254.791178 
L 192.979346 274.009121 
L 193.778988 266.09585 
L 194.57863 259.313047 
L 195.378271 237.834168 
L 196.177913 244.616972 
L 196.977555 266.09585 
L 197.777197 267.226318 
L 198.576838 240.095103 
L 199.37648 229.920897 
L 200.176122 227.659963 
L 200.975764 186.96314 
L 201.775405 223.138093 
L 202.575047 242.356037 
L 203.374689 251.399776 
L 204.17433 293.227065 
M 205.773614 236.703701 
L 207.372897 259.313047 
L 208.172539 272.878654 
L 208.972181 258.182579 
L 209.771823 223.138093 
L 210.571464 244.616972 
L 211.371106 276.270056 
L 212.170748 244.616972 
L 212.97039 244.616972 
L 213.770031 241.22557 
M 215.369315 277.400523 
L 216.168957 240.095103 
L 216.968598 254.791178 
L 217.76824 224.268561 
L 218.567882 237.834168 
L 219.367524 262.704449 
L 220.167165 260.443514 
L 220.966807 260.443514 
L 221.766449 280.791925 
L 222.56609 295.488 
L 223.365732 268.356785 
L 224.165374 253.66071 
L 224.965016 262.704449 
L 225.764657 267.226318 
L 226.564299 284.183327 
L 227.363941 257.052112 
L 228.163583 246.877907 
L 228.963224 160.962393 
L 229.762866 231.051364 
L 230.562508 270.61772 
M 232.961433 236.703701 
L 233.761075 238.964636 
L 234.560717 246.877907 
L 235.360358 257.052112 
L 236.16 270.61772 
L 236.959642 228.79043 
L 237.759283 232.181832 
L 239.358567 210.702953 
L 240.158209 229.920897 
L 240.95785 210.702953 
M 243.356776 79.568748 
L 244.156417 79.568748 
L 244.956059 62.611738 
L 245.755701 96.525757 
L 246.555343 167.745196 
L 247.354984 137.222579 
M 251.353193 173.397533 
L 252.152835 249.138841 
L 252.952476 192.615477 
L 253.752118 209.572486 
L 254.55176 219.746692 
L 255.351402 278.530991 
L 256.950685 229.920897 
M 258.549969 233.312299 
L 259.34961 203.92015 
L 260.149252 216.35529 
L 260.948894 193.745944 
L 261.748536 188.093607 
M 264.147461 277.400523 
L 264.947103 289.835664 
L 265.746744 160.962393 
L 266.546386 153.049121 
M 270.544595 207.311551 
L 271.344236 259.313047 
L 272.94352 118.004636 
L 273.743162 217.485757 
L 274.542803 218.616224 
L 275.342445 149.65772 
M 277.74137 250.269308 
L 278.541012 212.963888 
L 279.340654 245.747439 
L 280.140296 227.659963 
L 280.939937 241.22557 
L 281.739579 234.442766 
L 282.539221 211.833421 
L 283.338863 222.007626 
L 284.138504 283.05286 
L 285.737788 248.008374 
L 286.537429 194.876411 
L 287.337071 167.745196 
M 288.936355 207.311551 
L 289.735996 220.877159 
L 290.535638 158.701458 
L 291.33528 223.138093 
L 292.134922 173.397533 
L 292.934563 162.09286 
L 293.734205 200.528748 
L 294.533847 182.441271 
L 295.333489 171.136598 
L 296.13313 193.745944 
L 296.932772 199.39828 
L 297.732414 260.443514 
L 298.532056 259.313047 
L 299.331697 238.964636 
L 300.131339 222.007626 
L 300.930981 233.312299 
L 301.730622 225.399028 
L 302.530264 209.572486 
L 304.129548 140.613981 
L 304.929189 162.09286 
L 305.728831 167.745196 
L 306.528473 189.224075 
L 307.328115 164.353794 
L 308.127756 244.616972 
L 308.927398 224.268561 
L 309.72704 214.094355 
L 310.526682 261.573981 
L 311.326323 214.094355 
L 312.125965 266.09585 
L 312.925607 259.313047 
L 313.725249 258.182579 
L 314.52489 275.139589 
L 315.324532 254.791178 
M 316.923815 245.747439 
L 317.723457 246.877907 
L 318.523099 274.009121 
L 319.322741 292.096598 
L 320.122382 286.444262 
L 320.922024 268.356785 
L 321.721666 218.616224 
L 322.521308 252.530243 
L 323.320949 263.834916 
L 324.120591 264.965383 
L 324.920233 274.009121 
L 325.719875 180.180336 
L 326.519516 261.573981 
L 327.319158 209.572486 
L 328.1188 184.702206 
L 328.918442 189.224075 
L 329.718083 181.310804 
L 330.517725 190.354542 
L 331.317367 209.572486 
L 332.117009 205.050617 
L 332.91665 225.399028 
L 333.716292 268.356785 
L 334.515934 280.791925 
L 335.315575 262.704449 
L 336.115217 270.61772 
L 336.914859 276.270056 
L 337.714501 249.138841 
L 338.514142 267.226318 
L 339.313784 272.878654 
L 340.113426 269.487252 
L 340.913068 253.66071 
L 341.712709 249.138841 
L 342.512351 214.094355 
L 343.311993 253.66071 
L 344.111635 214.094355 
L 344.911276 220.877159 
L 345.710918 255.921645 
L 346.51056 252.530243 
L 347.310202 215.224822 
L 348.109843 203.92015 
L 348.909485 201.659215 
L 349.709127 240.095103 
L 350.508768 240.095103 
L 352.108052 274.009121 
L 352.907694 269.487252 
L 353.707335 263.834916 
L 354.506977 257.052112 
L 355.306619 251.399776 
L 356.106261 272.878654 
L 356.905902 268.356785 
L 357.705544 266.09585 
L 358.505186 243.486505 
L 359.304828 268.356785 
L 360.104469 263.834916 
L 360.904111 225.399028 
L 361.703753 219.746692 
L 362.503395 200.528748 
L 363.303036 254.791178 
L 364.102678 270.61772 
L 364.90232 249.138841 
L 365.701961 246.877907 
L 366.501603 241.22557 
L 367.301245 214.094355 
M 368.900528 220.877159 
L 369.70017 244.616972 
L 370.499812 253.66071 
L 371.299454 244.616972 
L 372.099095 222.007626 
L 372.898737 240.095103 
L 373.698379 277.400523 
L 374.498021 287.574729 
L 375.297662 278.530991 
L 376.097304 237.834168 
L 376.896946 233.312299 
L 377.696588 242.356037 
L 378.496229 243.486505 
L 379.295871 236.703701 
L 380.095513 209.572486 
L 380.895155 209.572486 
L 381.694796 262.704449 
L 382.494438 238.964636 
L 383.29408 229.920897 
L 384.093721 242.356037 
L 384.893363 215.224822 
L 385.693005 261.573981 
L 386.492647 286.444262 
L 387.292288 243.486505 
L 388.09193 252.530243 
L 388.891572 240.095103 
L 389.691214 257.052112 
L 390.490855 242.356037 
L 391.290497 219.746692 
L 392.090139 248.008374 
L 392.889781 258.182579 
L 393.689422 206.181084 
L 394.489064 219.746692 
L 395.288706 246.877907 
L 396.088348 225.399028 
L 396.887989 262.704449 
L 397.687631 207.311551 
L 398.487273 216.35529 
L 398.487273 216.35529 
" clip-path="url(#p67481733e6)" style="fill: none; stroke: #4c72b0; stroke-width: 1.5; stroke-linecap: round"/>
   </g>
   <g id="patch_3">
    <path d="M 57.6 307.584 
L 57.6 41.472 
" style="fill: none; stroke: #262626; stroke-width: 1.25; stroke-linejoin: miter; stroke-linecap: square"/>
   </g>
   <g id="patch_4">
    <path d="M 414.72 307.584 
L 414.72 41.472 
" style="fill: none; stroke: #262626; stroke-width: 1.25; stroke-linejoin: miter; stroke-linecap: square"/>
   </g>
   <g id="patch_5">
    <path d="M 57.6 307.584 
L 414.72 307.584 
" style="fill: none; stroke: #262626; stroke-width: 1.25; stroke-linejoin: miter; stroke-linecap: square"/>
   </g>
   <g id="patch_6">
    <path d="M 57.6 41.472 
L 414.72 41.472 
" style="fill: none; stroke: #262626; stroke-width: 1.25; stroke-linejoin: miter; stroke-linecap: square"/>
   </g>
  </g>
 </g>
 <defs>
  <clipPath id="p67481733e6">
   <rect x="57.6" y="41.472" width="357.12" height="266.112"/>
  </clipPath>
 </defs>
</svg>
